<svg xmlns="http://www.w3.org/2000/svg" viewBox="0 0 720 480" fill="none">
  <defs>
    <linearGradient id="bg-c" x1="86" y1="44" x2="640" y2="420" gradientUnits="userSpaceOnUse">
      <stop stop-color="#08111F"/>
      <stop offset="1" stop-color="#0F2749"/>
    </linearGradient>
  </defs>
  <rect width="720" height="480" rx="36" fill="url(#bg-c)"/>
  <circle cx="592" cy="116" r="96" fill="#3B73EE" fill-opacity=".18"/>
  <circle cx="140" cy="364" r="116" fill="#6B3FF0" fill-opacity=".1"/>
  <rect x="76" y="76" width="568" height="328" rx="28" fill="#FFFFFF" fill-opacity=".06" stroke="#FFFFFF" stroke-opacity=".12"/>
  <rect x="112" y="112" width="168" height="18" rx="9" fill="#FFFFFF" fill-opacity=".18"/>
  <rect x="112" y="152" width="202" height="12" rx="6" fill="#BFDBFE"/>
  <rect x="112" y="204" width="498" height="148" rx="24" fill="#0B1F3A" stroke="#FFFFFF" stroke-opacity=".08"/>
  <rect x="148" y="270" width="56" height="46" rx="14" fill="#3B73EE"/>
  <rect x="228" y="236" width="56" height="80" rx="14" fill="#60A5FA"/>
  <rect x="308" y="250" width="56" height="66" rx="14" fill="#54B3E6"/>
  <rect x="388" y="214" width="56" height="102" rx="14" fill="#6B3FF0"/>
  <rect x="468" y="184" width="56" height="132" rx="14" fill="#F8FAFC" fill-opacity=".92"/>
  <rect x="548" y="228" width="26" height="88" rx="13" fill="#6B3FF0" fill-opacity=".7"/>
  <text x="112" y="382" fill="#E2E8F0" font-family="Arial, sans-serif" font-size="20" letter-spacing="2">ERP FINANCE VISIBILITY</text>
</svg>
