<svg xmlns="http://www.w3.org/2000/svg" viewBox="0 0 720 480" fill="none">
  <defs>
    <linearGradient id="bg-b" x1="52" y1="52" x2="648" y2="428" gradientUnits="userSpaceOnUse">
      <stop stop-color="#071426"/>
      <stop offset="1" stop-color="#0B1F3A"/>
    </linearGradient>
  </defs>
  <rect width="720" height="480" rx="36" fill="url(#bg-b)"/>
  <circle cx="138" cy="110" r="100" fill="#3B73EE" fill-opacity=".16"/>
  <circle cx="580" cy="374" r="120" fill="#6B3FF0" fill-opacity=".11"/>
  <rect x="72" y="72" width="576" height="336" rx="28" fill="#FFFFFF" fill-opacity=".06" stroke="#FFFFFF" stroke-opacity=".12"/>
  <rect x="110" y="108" width="180" height="18" rx="9" fill="#FFFFFF" fill-opacity=".18"/>
  <rect x="110" y="150" width="230" height="12" rx="6" fill="#BFDBFE"/>
  <rect x="110" y="198" width="132" height="148" rx="20" fill="#0B1F3A" stroke="#FFFFFF" stroke-opacity=".08"/>
  <rect x="294" y="198" width="132" height="148" rx="20" fill="#0B1F3A" stroke="#FFFFFF" stroke-opacity=".08"/>
  <rect x="478" y="198" width="132" height="148" rx="20" fill="#0B1F3A" stroke="#FFFFFF" stroke-opacity=".08"/>
  <path d="M242 272H294" stroke="#3B73EE" stroke-width="8" stroke-linecap="round"/>
  <path d="M426 272H478" stroke="#6B3FF0" stroke-width="8" stroke-linecap="round"/>
  <circle cx="176" cy="230" r="18" fill="#3B73EE"/>
  <circle cx="360" cy="230" r="18" fill="#54B3E6"/>
  <circle cx="544" cy="230" r="18" fill="#6B3FF0"/>
  <text x="110" y="378" fill="#E2E8F0" font-family="Arial, sans-serif" font-size="20" letter-spacing="2">MULTI-BRAND CRM ORCHESTRATION</text>
</svg>
